# xmcd
#
# Track frame offsets: 
#        150
#        20511
#        37822
#        55024
#        72522
#        89290
#        106328
#        128248
#        147482
#        162066
#        177595
#        195133
#        213100
#        226789
#        240660
#        257583
#
# Disc length: 3694 seconds
#
# Revision: 4
# Processed by: cddbd v1.4PL0 Copyright (c) Steve Scherf et al.
# Submitted via: ExactAudioCopy v0.90b4
#
DISCID=ce0e6c10
DTITLE=Σφακιανάκης Νότης - Πολύχρωμα και έντονα
DYEAR=2000
DGENRE=Pop-Folk
TTITLE0=Δεν μπορώ να καταλάβω
TTITLE1=Συγχώρεσέ με
TTITLE2=Καίγομαι
TTITLE3=Κάψε
TTITLE4=Εικόνες
TTITLE5=Πάρε με
TTITLE6=’ν
TTITLE7=Θέλω να ζήσω
TTITLE8=Τίποτα
TTITLE9=Δελτίο καρδιάς
TTITLE10=Το σώμα μου αετού φωλιά
TTITLE11=Γύρισε πίσω
TTITLE12=Το φινάλε της καρδιάς
TTITLE13=Ο θεός να σε φιλάει
TTITLE14=Μάνα, μανούλα μου
TTITLE15=Η πιο γλυκιά πατρίδα
EXTD=Ripped by: {{{dimitris}}}, who else?\nYou can find him at http://
EXTD=dimitrisscript.enosi.org
EXTT0=
EXTT1=
EXTT2=
EXTT3=
EXTT4=
EXTT5=
EXTT6=
EXTT7=
EXTT8=
EXTT9=
EXTT10=
EXTT11=
EXTT12=
EXTT13=
EXTT14=
EXTT15=
PLAYORDER=
